<svg width="56" height="40" viewBox="0 0 56 40" fill="none" xmlns="http://www.w3.org/2000/svg">
    <path d="M2 20L50 20" stroke="white" stroke-width="2" stroke-linecap="round"/>
    <path d="M29.4829 37.1441C29.0102 37.4297 28.8585 38.0444 29.1441 38.5171C29.4297 38.9898 30.0444 39.1415 30.5171 38.8559L29.4829 37.1441ZM30.5171 1.14409C30.0444 0.858492 29.4297 1.01018 29.1441 1.48289C28.8585 1.9556 29.0102 2.57032 29.4829 2.85592L30.5171 1.14409ZM53.5171 16.2083L53 17.0642L53.5171 16.2083ZM53.5171 23.7917L54.0342 24.6477L53.5171 23.7917ZM30.5171 38.8559L54.0342 24.6477L53 22.9358L29.4829 37.1441L30.5171 38.8559ZM29.4829 2.85592L53 17.0642L54.0342 15.3523L30.5171 1.14409L29.4829 2.85592ZM53 17.0642L53 22.9358L55 22.9358L55 17.0642L53 17.0642ZM53 17.0642L53 17.0642L55 17.0642C55 16.3638 54.6337 15.7145 54.0342 15.3523L53 17.0642ZM54.0342 24.6477C54.6337 24.2855 55 23.6362 55 22.9358L53 22.9358L53 22.9358L54.0342 24.6477Z" fill="white"/>
</svg>
